<svg xmlns="http://www.w3.org/2000/svg" width="200" height="200" viewBox="0 0 200 200">
  <g id="advanced-paint" transform="translate(-730 -1635)">
    <g id="Ellipse_738" data-name="Ellipse 738" transform="translate(730 1635)" fill="none" stroke="#112459" stroke-width="1" stroke-dasharray="10" opacity="0.4">
      <circle cx="100" cy="100" r="100" stroke="none"/>
      <circle cx="100" cy="100" r="99.5" fill="none"/>
    </g>
    <g id="vector" transform="translate(763.925 1689)">
      <g id="Group_58052" data-name="Group 58052" transform="translate(25.075)">
        <g id="Group_58051" data-name="Group 58051">
          <path id="Path_4187" data-name="Path 4187" d="M104.44,36.19h-.732a37.519,37.519,0,0,0-23.187-29.5H97.348a5.348,5.348,0,1,0,0-2.691H71.93V3.45A3.454,3.454,0,0,0,68.48,0H64.685a3.455,3.455,0,0,0-3.451,3.45V4H35.6a5.349,5.349,0,1,0,0,2.692H52.643a37.519,37.519,0,0,0-23.186,29.5h-.931a3.455,3.455,0,0,0-3.451,3.45v3.795a3.454,3.454,0,0,0,3.451,3.45H32.32a3.454,3.454,0,0,0,3.45-3.45V39.64a3.454,3.454,0,0,0-3.45-3.45h-.145A35.023,35.023,0,0,1,61.234,7.1v.14A3.455,3.455,0,0,0,64.685,10.7H68.48a3.454,3.454,0,0,0,3.45-3.451V7.1A35.023,35.023,0,0,1,100.989,36.19h-.344a3.455,3.455,0,0,0-3.451,3.45v3.795a3.454,3.454,0,0,0,3.451,3.45h3.795a3.455,3.455,0,0,0,3.451-3.45V39.64A3.454,3.454,0,0,0,104.44,36.19Zm-4.565-31a2.656,2.656,0,1,1,0,.323,1.237,1.237,0,0,0,0-.323ZM30.423,8a2.657,2.657,0,1,1,2.656-2.656A2.66,2.66,0,0,1,30.423,8Zm1.9,30.877a.76.76,0,0,1,.759.759v3.795a.76.76,0,0,1-.759.759H28.525a.76.76,0,0,1-.759-.759V39.64a.76.76,0,0,1,.759-.759ZM69.239,7.245A.76.76,0,0,1,68.48,8H64.685a.76.76,0,0,1-.759-.759V3.451a.76.76,0,0,1,.759-.759H68.48a.76.76,0,0,1,.759.759Zm35.96,36.19a.76.76,0,0,1-.759.759h-3.795a.76.76,0,0,1-.759-.759V39.64a.76.76,0,0,1,.759-.759h3.795a.76.76,0,0,1,.759.759Z" transform="translate(-25.075)" fill="#fc8e0b"/>
        </g>
      </g>
      <g id="Group_58054" data-name="Group 58054" transform="translate(41.577 15.138)">
        <g id="Group_58053" data-name="Group 58053" transform="translate(0)">
          <path id="Path_4188" data-name="Path 4188" d="M155.355,134.888l10.077-10.219a1.346,1.346,0,0,0-1.916-1.89L153.439,133a4.769,4.769,0,0,0-1.382,3.369v4.624H132.345v-4.624A4.771,4.771,0,0,0,130.964,133l-10.517-10.665a2.266,2.266,0,0,1-.259-2.861l20.668-30.33V118.87h-.512a4.7,4.7,0,1,0,0,9.4h3.717a4.7,4.7,0,1,0,0-9.4h-.512V89.142l19.8,29.06a1.346,1.346,0,0,0,2.224-1.516L144.363,85.56a2.62,2.62,0,0,0-4.324,0l-22.076,32.4a4.963,4.963,0,0,0,.566,6.266l10.517,10.665a2.094,2.094,0,0,1,.606,1.479v4.664a3.5,3.5,0,0,0-3,3.459V149.7a3.5,3.5,0,0,0,3.5,3.5h1.59v4.588a3.3,3.3,0,0,0,3.3,3.3h3.827a1.346,1.346,0,1,0,0-2.691h-3.827a.609.609,0,0,1-.608-.609V153.2h15.53v4.588a.609.609,0,0,1-.608.609h-4.206a1.346,1.346,0,1,0,0,2.691h4.206a3.3,3.3,0,0,0,3.3-3.3V153.2h1.59a3.5,3.5,0,0,0,3.5-3.5V144.49a3.5,3.5,0,0,0-3-3.459v-4.664A2.092,2.092,0,0,1,155.355,134.888Zm-11.3-13.327a2.009,2.009,0,1,1,0,4.019h-3.717a2.009,2.009,0,1,1,0-4.019Zm11,22.929V149.7a.818.818,0,0,1-.807.807H130.155a.818.818,0,0,1-.807-.807V144.49a.818.818,0,0,1,.807-.807h24.093A.818.818,0,0,1,155.055,144.49Z" transform="translate(-117.107 -84.421)" fill="#42b39a"/>
        </g>
      </g>
    </g>
  </g>
</svg>
