<svg xmlns="http://www.w3.org/2000/svg" width="200" height="200" viewBox="0 0 200 200">
  <g id="advanced-motion" transform="translate(-970 -2040)">
    <g id="Ellipse_739" data-name="Ellipse 739" transform="translate(970 2040)" fill="none" stroke="#112459" stroke-width="1" stroke-dasharray="10" opacity="0.4">
      <circle cx="100" cy="100" r="100" stroke="none"/>
      <circle cx="100" cy="100" r="99.5" fill="none"/>
    </g>
    <g id="animation" transform="translate(1024 2094.002)">
      <path id="Path_4189" data-name="Path 4189" d="M94.387,72.006l6.115,1.868a4.158,4.158,0,0,0,5.173-2.7l5.247-16.278,11.132-7.847,6.719,12.515a4.142,4.142,0,0,0,2.39,1.992l17.275,5.567-.38,1.886a4.218,4.218,0,0,0,3.176,4.964,4.163,4.163,0,0,0,4.963-3.242l1.13-5.6a4.159,4.159,0,0,0-2.8-4.783l-19.195-6.186a.056.056,0,0,1-.032-.027l-7.879-14.676-4.411-18.621,7.846,2.618,5.863,13.434a4.159,4.159,0,1,0,7.624-3.328l-1.626-3.726a1.345,1.345,0,1,0-2.465,1.076l1.626,3.726a1.47,1.47,0,1,1-2.694,1.176l-5.913-13.549a2.413,2.413,0,0,0-1.444-1.32l-10.256-3.422a1.345,1.345,0,0,0-1.734,1.586l5.008,21.142a1.35,1.35,0,0,0,.123.326L132.928,55.4a2.731,2.731,0,0,0,1.576,1.313L153.7,62.9a1.47,1.47,0,0,1,.991,1.692l-1.13,5.6a1.471,1.471,0,0,1-1.754,1.146,1.519,1.519,0,0,1-1.112-1.805l.618-3.063a1.346,1.346,0,0,0-.906-1.546l-18.418-5.935a1.465,1.465,0,0,1-.845-.7L122.2,41.636a1.457,1.457,0,0,1-.136-.357l-6.257-26.42a1.469,1.469,0,0,1,1.894-1.734l16.686,5.567a1.474,1.474,0,0,1,.883.806l2.682,6.146a1.345,1.345,0,0,0,2.465-1.076l-2.682-6.146a4.166,4.166,0,0,0-2.5-2.281l-15.659-5.225A6.839,6.839,0,0,0,114.871.042,6.832,6.832,0,0,0,113.183,13.6c-.023.1-.042.2-.057.3-.089.2.13-.572-3.3,13.151L97.554,34.308a4.161,4.161,0,0,0,4.233,7.164l13.766-8.138a4.194,4.194,0,0,0,1.5-1.536L118.8,39.16l-13.806,9.732a4.188,4.188,0,0,0-1.563,2.124l-1.74,5.4a1.345,1.345,0,1,0,2.56.825l1.74-5.4a1.475,1.475,0,0,1,.553-.75l12.925-9.112a13.707,13.707,0,0,0,1.3,2.68l-11.767,8.3a1.348,1.348,0,0,0-.505.686l-5.385,16.706a1.467,1.467,0,0,1-1.827.954l-6.115-1.868a1.474,1.474,0,0,1-.978-1.837c.69-2.263,3.9-.042,5.3.082a1.343,1.343,0,0,0,1.673-.873l1.325-4.108a1.345,1.345,0,1,0-2.56-.824l-.918,2.847-2.2-.672a4.16,4.16,0,0,0-2.428,7.958Zm15.6-65.642a4.141,4.141,0,1,1,5.7,4.3l-.04.016a4.15,4.15,0,0,1-5.655-4.316Zm4.874,23.746a1.481,1.481,0,0,1-.677.909l-13.766,8.138a1.471,1.471,0,0,1-1.5-2.533l12.753-7.539a1.343,1.343,0,0,0,.621-.832l2.012-8.06,1.476,6.228Zm0,0" transform="translate(-75.045 0)" fill="#42b39a"/>
      <path id="Path_4190" data-name="Path 4190" d="M90.463,414.821H39.742a4.035,4.035,0,0,0-7.587,0H1.345A1.345,1.345,0,0,0,0,416.166v12.552a1.344,1.344,0,0,0,1.345,1.345H90.463a1.344,1.344,0,0,0,1.345-1.345V416.166a1.345,1.345,0,0,0-1.345-1.345Zm-54.514.029a1.345,1.345,0,1,1-1.345,1.345A1.346,1.346,0,0,1,35.949,414.85ZM2.69,427.373v-3.586h8.846a1.345,1.345,0,0,0,0-2.69H2.69v-3.586H32.135a4.035,4.035,0,0,0,7.628,0H89.118V421.1H76.186a4.035,4.035,0,0,0-7.608,0H17.214a1.345,1.345,0,0,0,0,2.69H68.578a4.035,4.035,0,0,0,7.608,0H89.118v3.586Zm68.347-4.938a1.345,1.345,0,1,1,0,.014v-.014Zm0,0" transform="translate(0 -338.257)" fill="#fc8e0b"/>
    </g>
  </g>
</svg>
