<svg xmlns="http://www.w3.org/2000/svg" width="200" height="200" viewBox="0 0 200 200">
  <g id="character-design" transform="translate(-852 -2556)">
    <g id="Ellipse_740" data-name="Ellipse 740" transform="translate(852 2556)" fill="none" stroke="#112459" stroke-width="1" stroke-dasharray="10" opacity="0.4">
      <circle cx="100" cy="100" r="100" stroke="none"/>
      <circle cx="100" cy="100" r="99.5" fill="none"/>
    </g>
    <g id="character-design-2" data-name="character-design" transform="translate(906 2610)">
      <g id="Group_58055" data-name="Group 58055" transform="translate(0 0)">
        <path id="Path_4191" data-name="Path 4191" d="M153.891,479.067h-2.11a1.345,1.345,0,1,0,0,2.69h2.11a1.345,1.345,0,1,0,0-2.69Z" transform="translate(-123.461 -393.165)" fill="#42b39a"/>
        <path id="Path_4192" data-name="Path 4192" d="M107.8,479.067h-2.11a1.345,1.345,0,1,0,0,2.69h2.11a1.345,1.345,0,1,0,0-2.69Z" transform="translate(-85.635 -393.165)" fill="#42b39a"/>
        <path id="Path_4193" data-name="Path 4193" d="M384.341,479.067h-2.11a1.345,1.345,0,1,0,0,2.69h2.11a1.345,1.345,0,1,0,0-2.69Z" transform="translate(-312.589 -393.165)" fill="#42b39a"/>
        <path id="Path_4194" data-name="Path 4194" d="M246.071,479.067h-2.11a1.345,1.345,0,1,0,0,2.69h2.11a1.345,1.345,0,1,0,0-2.69Z" transform="translate(-199.112 -393.165)" fill="#42b39a"/>
        <path id="Path_4195" data-name="Path 4195" d="M13.9,436.317H11.877v-4.089a1.885,1.885,0,0,0-1.883-1.883H5.905v-2.024a1.345,1.345,0,0,0-2.69,0v2.024H1.883A1.885,1.885,0,0,0,0,432.228v8.111a1.885,1.885,0,0,0,1.883,1.883H9.994a1.885,1.885,0,0,0,1.883-1.883v-1.333H13.9a1.345,1.345,0,1,0,0-2.69Zm-4.713,3.216H2.69v-6.5h6.5Z" transform="translate(0 -350.415)" fill="#fc8e0b"/>
        <path id="Path_4196" data-name="Path 4196" d="M199.981,479.067h-2.11a1.345,1.345,0,1,0,0,2.69h2.11a1.345,1.345,0,1,0,0-2.69Z" transform="translate(-161.287 -393.165)" fill="#42b39a"/>
        <path id="Path_4197" data-name="Path 4197" d="M338.251,479.067h-2.11a1.345,1.345,0,1,0,0,2.69h2.11a1.345,1.345,0,1,0,0-2.69Z" transform="translate(-274.763 -393.165)" fill="#42b39a"/>
        <path id="Path_4198" data-name="Path 4198" d="M292.161,479.067h-2.11a1.345,1.345,0,1,0,0,2.69h2.11a1.345,1.345,0,1,0,0-2.69Z" transform="translate(-236.938 -393.165)" fill="#42b39a"/>
        <path id="Path_4199" data-name="Path 4199" d="M20.623,105.691a1.345,1.345,0,0,0-2.69,0v2.11a1.345,1.345,0,0,0,2.69,0Z" transform="translate(-14.717 -85.636)" fill="#42b39a"/>
        <path id="Path_4200" data-name="Path 4200" d="M20.623,151.781a1.345,1.345,0,0,0-2.69,0v2.11a1.345,1.345,0,0,0,2.69,0Z" transform="translate(-14.717 -123.461)" fill="#42b39a"/>
        <path id="Path_4201" data-name="Path 4201" d="M20.623,243.961a1.345,1.345,0,0,0-2.69,0v2.11a1.345,1.345,0,0,0,2.69,0Z" transform="translate(-14.717 -199.112)" fill="#42b39a"/>
        <path id="Path_4202" data-name="Path 4202" d="M20.623,197.871a1.345,1.345,0,0,0-2.69,0v2.11a1.345,1.345,0,1,0,2.69,0Z" transform="translate(-14.717 -161.287)" fill="#42b39a"/>
        <path id="Path_4203" data-name="Path 4203" d="M19.278,380.887a1.345,1.345,0,0,0-1.345,1.345v2.11a1.345,1.345,0,0,0,2.69,0v-2.11a1.345,1.345,0,0,0-1.345-1.345Z" transform="translate(-14.717 -312.59)" fill="#42b39a"/>
        <path id="Path_4204" data-name="Path 4204" d="M20.623,336.141a1.345,1.345,0,1,0-2.69,0v2.11a1.345,1.345,0,1,0,2.69,0Z" transform="translate(-14.717 -274.763)" fill="#42b39a"/>
        <path id="Path_4205" data-name="Path 4205" d="M20.623,290.052a1.345,1.345,0,1,0-2.69,0v2.11a1.345,1.345,0,0,0,2.69,0Z" transform="translate(-14.717 -236.939)" fill="#42b39a"/>
        <path id="Path_4206" data-name="Path 4206" d="M336.141,20.623h2.11a1.345,1.345,0,1,0,0-2.69h-2.11a1.345,1.345,0,1,0,0,2.69Z" transform="translate(-274.763 -14.717)" fill="#42b39a"/>
        <path id="Path_4207" data-name="Path 4207" d="M151.781,20.623h2.11a1.345,1.345,0,0,0,0-2.69h-2.11a1.345,1.345,0,0,0,0,2.69Z" transform="translate(-123.461 -14.717)" fill="#42b39a"/>
        <path id="Path_4208" data-name="Path 4208" d="M290.051,20.623h2.11a1.345,1.345,0,0,0,0-2.69h-2.11a1.345,1.345,0,1,0,0,2.69Z" transform="translate(-236.938 -14.717)" fill="#42b39a"/>
        <path id="Path_4209" data-name="Path 4209" d="M382.232,20.623h2.11a1.345,1.345,0,0,0,0-2.69h-2.11a1.345,1.345,0,0,0,0,2.69Z" transform="translate(-312.59 -14.717)" fill="#42b39a"/>
        <path id="Path_4210" data-name="Path 4210" d="M105.691,20.623h2.11a1.345,1.345,0,0,0,0-2.69h-2.11a1.345,1.345,0,0,0,0,2.69Z" transform="translate(-85.636 -14.717)" fill="#42b39a"/>
        <path id="Path_4211" data-name="Path 4211" d="M197.871,20.623h2.11a1.345,1.345,0,1,0,0-2.69h-2.11a1.345,1.345,0,0,0,0,2.69Z" transform="translate(-161.287 -14.717)" fill="#42b39a"/>
        <path id="Path_4212" data-name="Path 4212" d="M243.961,20.623h2.11a1.345,1.345,0,0,0,0-2.69h-2.11a1.345,1.345,0,0,0,0,2.69Z" transform="translate(-199.112 -14.717)" fill="#42b39a"/>
        <path id="Path_4213" data-name="Path 4213" d="M479.067,246.071a1.345,1.345,0,1,0,2.69,0v-2.11a1.345,1.345,0,1,0-2.69,0Z" transform="translate(-393.165 -199.112)" fill="#42b39a"/>
        <path id="Path_4214" data-name="Path 4214" d="M480.412,109.145a1.345,1.345,0,0,0,1.345-1.345v-2.11a1.345,1.345,0,1,0-2.69,0v2.11A1.345,1.345,0,0,0,480.412,109.145Z" transform="translate(-393.165 -85.635)" fill="#42b39a"/>
        <path id="Path_4215" data-name="Path 4215" d="M479.067,292.161a1.345,1.345,0,0,0,2.69,0v-2.11a1.345,1.345,0,1,0-2.69,0Z" transform="translate(-393.165 -236.938)" fill="#42b39a"/>
        <path id="Path_4216" data-name="Path 4216" d="M479.067,338.251a1.345,1.345,0,1,0,2.69,0v-2.11a1.345,1.345,0,1,0-2.69,0Z" transform="translate(-393.165 -274.763)" fill="#42b39a"/>
        <path id="Path_4217" data-name="Path 4217" d="M479.067,384.341a1.345,1.345,0,1,0,2.69,0v-2.11a1.345,1.345,0,1,0-2.69,0Z" transform="translate(-393.165 -312.589)" fill="#42b39a"/>
        <path id="Path_4218" data-name="Path 4218" d="M479.067,199.98a1.345,1.345,0,1,0,2.69,0v-2.11a1.345,1.345,0,1,0-2.69,0Z" transform="translate(-393.165 -161.286)" fill="#42b39a"/>
        <path id="Path_4219" data-name="Path 4219" d="M479.067,153.891a1.345,1.345,0,1,0,2.69,0v-2.11a1.345,1.345,0,1,0-2.69,0Z" transform="translate(-393.165 -123.461)" fill="#42b39a"/>
        <path id="Path_4220" data-name="Path 4220" d="M440.34,430.346h-1.333v-2.024a1.345,1.345,0,0,0-2.69,0v2.024h-4.089a1.885,1.885,0,0,0-1.883,1.883v4.089h-2.024a1.345,1.345,0,0,0,0,2.69h2.024v1.333a1.885,1.885,0,0,0,1.883,1.883h8.111a1.885,1.885,0,0,0,1.883-1.883v-8.111A1.885,1.885,0,0,0,440.34,430.346Zm-.807,9.187h-6.5v-6.5h6.5Z" transform="translate(-350.415 -350.415)" fill="#fc8e0b"/>
        <path id="Path_4221" data-name="Path 4221" d="M440.34,0h-8.111a1.885,1.885,0,0,0-1.883,1.883V3.216h-2.024a1.345,1.345,0,0,0,0,2.69h2.024V9.994a1.885,1.885,0,0,0,1.883,1.883h4.089V13.9a1.345,1.345,0,1,0,2.69,0V11.877h1.333a1.885,1.885,0,0,0,1.883-1.883V1.883A1.885,1.885,0,0,0,440.34,0Zm-.807,9.187h-6.5V2.69h6.5Z" transform="translate(-350.415 0)" fill="#fc8e0b"/>
        <path id="Path_4222" data-name="Path 4222" d="M1.883,11.877H3.216V13.9a1.345,1.345,0,0,0,2.69,0V11.877H9.994a1.885,1.885,0,0,0,1.883-1.883V5.905H13.9a1.345,1.345,0,0,0,0-2.69H11.877V1.883A1.885,1.885,0,0,0,9.994,0H1.883A1.885,1.885,0,0,0,0,1.883V9.994A1.885,1.885,0,0,0,1.883,11.877ZM2.69,2.69h6.5v6.5H2.69Z" transform="translate(0 0)" fill="#fc8e0b"/>
        <path id="Path_4223" data-name="Path 4223" d="M313.5,262.014v4.823a1.345,1.345,0,1,0,2.69,0v-4.823a1.345,1.345,0,1,0-2.69,0Z" transform="translate(-257.286 -213.928)" fill="#42b39a"/>
        <path id="Path_4224" data-name="Path 4224" d="M183.5,262.014v4.823a1.345,1.345,0,1,0,2.69,0v-4.823a1.345,1.345,0,1,0-2.69,0Z" transform="translate(-150.596 -213.928)" fill="#42b39a"/>
        <path id="Path_4225" data-name="Path 4225" d="M138.637,106a12.843,12.843,0,0,0-1.6-6.2,1.345,1.345,0,0,0-2.354,1.3,10.128,10.128,0,0,1-2.554,12.816,24.117,24.117,0,0,0-7.648-11,27.377,27.377,0,0,0-4.061-2.783l-.569-2.33a10.118,10.118,0,0,1,10.929-.636,1.345,1.345,0,1,0,1.322-2.342,12.8,12.8,0,0,0-12.928.2l-2.3-9.429a1.883,1.883,0,0,0-3.286-.746l-3.509,4.288-2.655-4.253a1.872,1.872,0,0,0-1.6-.886h0a1.872,1.872,0,0,0-1.6.885l-2.651,4.244-3.492-4.277A1.883,1.883,0,0,0,94.8,85.6l-2.315,9.436A12.821,12.821,0,0,0,78.8,116.712a21.891,21.891,0,0,0-.389,4.1c0,11.747,9.353,21.582,21.771,23.906a11.808,11.808,0,0,0,11.325-.012,28.964,28.964,0,0,0,11.714-5.012,24.182,24.182,0,0,0,9.465-13.976,1.345,1.345,0,0,0-2.622-.6c-1.619,7.077-7.108,12.793-14.285,15.581a11.793,11.793,0,0,0,1.492-3.48,1.345,1.345,0,0,0-2.61-.65,9.1,9.1,0,1,1-15.07-8.83,7.3,7.3,0,0,0,4.89,2.922v6.413a1.345,1.345,0,0,0,2.69,0v-6.412a7.3,7.3,0,0,0,4.889-2.921,9.053,9.053,0,0,1,2.267,3.36,1.345,1.345,0,0,0,2.511-.964,11.765,11.765,0,0,0-3.821-5.1c.007-.106.01-.213.01-.321,0-3.338-3.231-6.053-7.2-6.053s-7.2,2.716-7.2,6.053q0,.155.009.309A11.765,11.765,0,0,0,95.9,140.72C87.193,137.351,81.1,129.7,81.1,120.814c0-11.987,11.091-21.738,24.724-21.738a26.544,26.544,0,0,1,16.942,5.91,20.72,20.72,0,0,1,7.718,14.268,1.345,1.345,0,0,0,2.681-.216,22,22,0,0,0-.314-2.327A12.822,12.822,0,0,0,138.637,106Zm-32.812,15.356c2.488,0,4.512,1.509,4.512,3.364s-2.024,3.364-4.512,3.364-4.512-1.509-4.512-3.364S103.337,121.355,105.825,121.355Zm-14.6-21.208a25.068,25.068,0,0,0-11.7,13.774A10.132,10.132,0,0,1,91.8,97.8Zm14.6-3.761A30.079,30.079,0,0,0,94.37,98.624l2.654-10.816,3.182,3.9a1.883,1.883,0,0,0,3.055-.193l2.563-4.1,2.567,4.112a1.883,1.883,0,0,0,3.054.2l3.2-3.907,2.64,10.809A30.222,30.222,0,0,0,105.825,96.386Z" transform="translate(-59.922 -68.939)" fill="#42b39a"/>
      </g>
    </g>
  </g>
</svg>
