<svg xmlns="http://www.w3.org/2000/svg" width="190.348" height="348.63" viewBox="0 0 190.348 348.63">
  <g id="down-arrow" transform="translate(-620.054 -1320.567)">
    <path id="down-arrow-2" data-name="down-arrow" d="M11755.178-2302.987s-191.278,96.4-182.1,324.407" transform="translate(-10945 3624)" fill="none" stroke="#112459" stroke-width="1" stroke-dasharray="10" opacity="0.4"/>
    <g id="Group_58203" data-name="Group 58203" transform="translate(-813.339 -1914.845) rotate(-1)">
      <path id="fi-sr-angle-down" d="M13.969,6.012l-5.12,5.121a1.883,1.883,0,0,1-2.659,0L1.07,6.012A.627.627,0,1,0,.184,6.9L5.3,12.018a3.138,3.138,0,0,0,4.431,0L14.855,6.9a.627.627,0,1,0-.886-.886Z" transform="translate(1371 3581.172)" fill="#fabd1e"/>
      <path id="fi-sr-angle-down-2" data-name="fi-sr-angle-down" d="M13.969,6.012l-5.12,5.121a1.883,1.883,0,0,1-2.659,0L1.07,6.012A.627.627,0,1,0,.184,6.9L5.3,12.018a3.138,3.138,0,0,0,4.431,0L14.855,6.9a.627.627,0,1,0-.886-.886Z" transform="translate(1371 3588.065)" fill="#fabd1e"/>
      <path id="fi-sr-angle-down-3" data-name="fi-sr-angle-down" d="M13.969,6.012l-5.12,5.121a1.883,1.883,0,0,1-2.659,0L1.07,6.012A.627.627,0,1,0,.184,6.9L5.3,12.018a3.138,3.138,0,0,0,4.431,0L14.855,6.9a.627.627,0,1,0-.886-.886Z" transform="translate(1371 3595.584)" fill="#fabd1e"/>
    </g>
  </g>
</svg>
