<svg xmlns="http://www.w3.org/2000/svg" width="508.967" height="474.922" viewBox="0 0 508.967 474.922">
  <g id="graphic-advantages" transform="translate(-310 -4684.595)">
    <g id="Group_58088" data-name="Group 58088" transform="translate(317.249 4684.595)">
      <path id="Path_3929" data-name="Path 3929" d="M375.657,148.964c-30,19.662-38.866,29.513-31.291,58.2s58.059,22.264,75.652-4.249,48.382-28.844,39.4-42.83S393.44,137.308,375.657,148.964Z" transform="translate(-324.877 -142.288)" fill="#f6f5f8"/>
      <path id="Path_3930" data-name="Path 3930" d="M605.744,143.925C522.52,132.355,478.829,208.5,421.477,246.584s-101.935,82.025-87.948,158.833,156.13,123.822,233.208,78.025,117.331,14.327,177.648,0S945.271,191.13,605.744,143.925Z" transform="translate(-330.939 -142.741)" fill="#f6f5f8"/>
    </g>
    <rect id="Rectangle_1536" data-name="Rectangle 1536" width="508.967" height="3.32" transform="translate(310 5156.197)" fill="#1f3c88"/>
    <g id="Group_58087" data-name="Group 58087" transform="translate(354.53 4724.366)">
      <g id="Group_58072" data-name="Group 58072" transform="translate(14.777 0)">
        <g id="Group_58069" data-name="Group 58069" transform="translate(293.33 75.539)">
          <g id="Group_58068" data-name="Group 58068" transform="translate(0 0)">
            <path id="Path_4229" data-name="Path 4229" d="M-1412.39,4.462a6.642,6.642,0,0,1-.449,2.387h-25.608c-.018-.018-.026-.035-.044-.053a.122.122,0,0,1-.018.053s-.687,0-1.929.018c-12.676.07-83.538.467-83.538-.159,0-7.224,5.523-13.073,12.333-13.073a11.674,11.674,0,0,1,4.51.9,7.256,7.256,0,0,1,4.74-1.762,7.5,7.5,0,0,1,6.263,3.48c.018-.035.035-.079.053-.115a14.585,14.585,0,0,1,7.224-6.73,21.716,21.716,0,0,1,9.2-1.973,23.6,23.6,0,0,1,2.872.176,21.06,21.06,0,0,1,18.641-11.752c10.3,0,18.9,7.787,20.807,18.112a7.228,7.228,0,0,1,3.982-1.2,7.533,7.533,0,0,1,6.739,4.334,12.209,12.209,0,0,1,4.149-.714A10.531,10.531,0,0,1-1413.411.92,6.762,6.762,0,0,1-1412.39,4.462Z" transform="translate(1523.976 24.142)" fill="#dee5f8"/>
          </g>
          <path id="Path_4230" data-name="Path 4230" d="M-1314.63.92a37.769,37.769,0,0,0-10.183-.8l-22.878.264c-9.135.106-17.275-5.118-26.612-4.272-4.475.414-9.03,2.238-13.328,2.493-3.409.2-7.558-.405-9.664-2.467a14.584,14.584,0,0,1,7.224-6.73,21.714,21.714,0,0,1,9.2-1.973,23.605,23.605,0,0,1,2.872.176,21.059,21.059,0,0,1,18.64-11.752c10.3,0,18.9,7.787,20.807,18.112a7.23,7.23,0,0,1,3.982-1.2,7.533,7.533,0,0,1,6.739,4.334,12.21,12.21,0,0,1,4.149-.714A10.531,10.531,0,0,1-1314.63.92Z" transform="translate(1425.195 24.142)" fill="#fff" opacity="0.4"/>
        </g>
        <g id="Group_58070" data-name="Group 58070" transform="translate(0 134.253)">
          <path id="Path_4231" data-name="Path 4231" d="M-2782.63,261.239a4.278,4.278,0,0,1-.3,1.568h-16.808a.069.069,0,0,1-.035-.035c0,.018-.009.026-.009.035s-56.115.361-56.115-.1a8.345,8.345,0,0,1,8.1-8.58,7.714,7.714,0,0,1,2.96.59,4.8,4.8,0,0,1,3.11-1.154,4.926,4.926,0,0,1,4.114,2.282c1.216-2.678,4.149-4.748,7.814-5.479a14.47,14.47,0,0,1,3-.308,14.735,14.735,0,0,1,1.885.115,13.829,13.829,0,0,1,12.237-7.717c6.765,0,12.4,5.118,13.663,11.892a4.714,4.714,0,0,1,2.617-.784,4.955,4.955,0,0,1,4.422,2.845,8.04,8.04,0,0,1,2.731-.476C-2785.6,255.936-2782.63,258.315-2782.63,261.239Z" transform="translate(2855.896 -242.458)" fill="#dee5f8"/>
          <path id="Path_4232" data-name="Path 4232" d="M-2690.243,261.239a4.288,4.288,0,0,1-.3,1.568h-9.743a22.589,22.589,0,0,0-1.752-2.828c-3.33-3.806-10.263-.758-14.28-3.823-.731-.555-1.321-1.286-2.079-1.8-2.334-1.55-5.436-.581-8.14.159-2.766.758-5.885,1.172-8.369-.264a5.367,5.367,0,0,1-2.511-3.885,14.469,14.469,0,0,1,3-.308,14.757,14.757,0,0,1,1.885.115,13.828,13.828,0,0,1,12.236-7.717c6.765,0,12.4,5.118,13.663,11.892a4.712,4.712,0,0,1,2.616-.784,4.955,4.955,0,0,1,4.422,2.845,8.039,8.039,0,0,1,2.731-.476C-2693.211,255.936-2690.243,258.315-2690.243,261.239Z" transform="translate(2763.509 -242.458)" fill="#fff" opacity="0.4"/>
        </g>
        <g id="Group_58071" data-name="Group 58071" transform="translate(17.9)">
          <path id="Path_4233" data-name="Path 4233" d="M-2666.466-337.244c0,.67-82.842.132-82.842.132a.082.082,0,0,1-.009-.044c-.018.018-.036.026-.053.044h-24.815a6.394,6.394,0,0,1-.432-2.308c0-4.325,4.369-7.823,9.761-7.823a11.92,11.92,0,0,1,4.026.687,7.318,7.318,0,0,1,6.536-4.193,7.012,7.012,0,0,1,3.849,1.154c1.859-10.007,10.193-17.548,20.174-17.548a1.705,1.705,0,0,1,.211.009,20.389,20.389,0,0,1,17.856,11.381,22.077,22.077,0,0,1,2.784-.176c7.4,0,13.7,3.568,15.962,8.545a7.278,7.278,0,0,1,6.07-3.365,7.06,7.06,0,0,1,4.6,1.709,11.306,11.306,0,0,1,4.369-.872,11.928,11.928,0,0,1,10.818,7.276A13.16,13.16,0,0,1-2666.466-337.244Z" transform="translate(2774.616 367.142)" fill="#dee5f8"/>
          <path id="Path_4234" data-name="Path 4234" d="M-2516.1-342.6c-3.726,1.251-7.919,1.409-11.91,1.5-9.312.2-19.213.255-27.132-4.634-2.749-1.691-5.171-3.938-8.131-5.215-4.95-2.141-11.311-1.568-14.958-5.532a8.362,8.362,0,0,1-.978-9.708,6.582,6.582,0,0,1,.652-.907A20.39,20.39,0,0,1-2560.7-355.72a22.061,22.061,0,0,1,2.783-.176c7.4,0,13.7,3.568,15.962,8.545a7.28,7.28,0,0,1,6.07-3.365,7.057,7.057,0,0,1,4.6,1.709,11.309,11.309,0,0,1,4.37-.872A11.928,11.928,0,0,1-2516.1-342.6Z" transform="translate(2623.118 367.111)" fill="#fff" opacity="0.4"/>
        </g>
      </g>
      <g id="Group_58086" data-name="Group 58086" transform="translate(0 2.576)">
        <g id="Group_58073" data-name="Group 58073" transform="translate(0 288.732)">
          <path id="Path_4235" data-name="Path 4235" d="M-2514.47,1096.313l-332.375,1.72-76.147.39,33.773-67.545,34.828-30.607L-2806.9,985.5l21.984-29.9H-2685l39.145,32.622,58.564,19,34.216,32.105.813,1.2,36.759,54.268Z" transform="translate(2922.993 -955.597)" fill="#1f3c88"/>
          <path id="Path_4236" data-name="Path 4236" d="M-1882.338,1094.793l-25.435-2.7-59.809-39.4-74.753-11.261-23.219-32.189-3.346-23.4-30.355-7.665L-2111,955.6h59.166l39.145,32.622,58.564,19,34.216,32.105.813,1.2Z" transform="translate(2289.825 -955.597)" fill="#dee5f8" opacity="0.1"/>
          <path id="Path_4237" data-name="Path 4237" d="M-2783.5,1005.549l-49.251,28.847-14.09,63.637-76.147.39,33.773-67.545,34.828-30.607L-2806.9,985.5l21.984-29.9Z" transform="translate(2922.993 -955.597)" fill="#102048"/>
        </g>
        <g id="Group_58085" data-name="Group 58085" transform="translate(144.176 0)">
          <g id="Group_58074" data-name="Group 58074" transform="translate(61.706 269.331)">
            <path id="Path_4238" data-name="Path 4238" d="M-1973.307,875.716l.092-8.212-11.9.841-.343,6.787A41.308,41.308,0,0,0-1973.307,875.716Z" transform="translate(1986.047 -867.504)" fill="#f9b384"/>
            <path id="Path_4239" data-name="Path 4239" d="M-1962.526,913.868c-3.225-5.282-7.636-7.046-12.9-7.713l.025-3.428a41.306,41.306,0,0,1-12.148-.584l-.592,11.725Z" transform="translate(1988.143 -894.514)" fill="#102048"/>
          </g>
          <g id="Group_58075" data-name="Group 58075" transform="translate(0 269.612)">
            <path id="Path_4240" data-name="Path 4240" d="M-2252.94,908.431l-1.088,2.486c-5.266.668-9.979,3.5-14.3,7.854h24.962l2.656-10.31A35.158,35.158,0,0,1-2252.94,908.431Z" transform="translate(2268.332 -899.698)" fill="#102048"/>
            <path id="Path_4241" data-name="Path 4241" d="M-2186.214,877.541l2.113-8.2-10.518-.561-3.82,8.733A35.158,35.158,0,0,0-2186.214,877.541Z" transform="translate(2213.832 -868.778)" fill="#f9b384"/>
          </g>
          <path id="Path_4242" data-name="Path 4242" d="M-2135.76,285.869c6.264,40.764,4.488,81.34-4.207,122.29h-14.959c1.786-26.579,3.15-58.174-1.029-79.1l-28.539,79.447h-16.338l26.927-113.1,9.256-18.138,21.691-2.618Z" transform="translate(2215.698 -135.883)" fill="#102048"/>
          <path id="Path_4243" data-name="Path 4243" d="M-1814.936-111.922l4.02-12.061,10.883,2.542c.819,4.039-4.07,10.167-7.7,14.754Z" transform="translate(1914.788 174.958)" fill="#f9b384"/>
          <path id="Path_4244" data-name="Path 4244" d="M-2030.87,61.3l-12.532.146-1.245-16.414-.146-1.963,12.588-.112.448,6.227Z" transform="translate(2094.023 44.782)" fill="#f9b384"/>
          <path id="Path_4245" data-name="Path 4245" d="M-2031.826,48.055c-4.1,2.928-9.466,1.1-12.82-3.021l-.146-1.963,12.588-.112Z" transform="translate(2094.023 44.782)" fill="#102048"/>
          <path id="Path_4246" data-name="Path 4246" d="M-2058.12-20.926c-6.36,1.454-13.46-2.625-16.261-8.043l-.379-9.725,3.559-5.048,15.143,1.3c-.071.018-.062.229,0,.59.176.943.757,2.951,1.294,5.374C-2053.442-30.581-2052.385-22.239-2058.12-20.926Z" transform="translate(2117.39 112.389)" fill="#f9b384"/>
          <path id="Path_4247" data-name="Path 4247" d="M-2057.509,86.791s9.349,7.479,17.483-3.179l15.427,51.235c-9.445,6.674-21.386,8.979-35.714,7.106Z" transform="translate(2106.125 13.082)" fill="#fff"/>
          <g id="Group_58076" data-name="Group 58076" transform="translate(50.621 103.443)" opacity="0.3">
            <path id="Path_4248" data-name="Path 4248" d="M-2038.476,117.042a17.04,17.04,0,0,0,3.94.9,13.079,13.079,0,0,0,3.937-.158,12.669,12.669,0,0,0,3.712-1.3,16.889,16.889,0,0,0,1.727-1.023c.573-.361,1.073-.82,1.655-1.206a20.032,20.032,0,0,1-1.366,1.562,11.3,11.3,0,0,1-1.646,1.3,10.431,10.431,0,0,1-3.91,1.587A10.776,10.776,0,0,1-2038.476,117.042Z" transform="translate(2038.476 -114.254)" fill="#1f3c88"/>
          </g>
          <path id="Path_4249" data-name="Path 4249" d="M-1947.936-79.407c-8.459,14.284-16.709,26.835-24.166,32.816a5.785,5.785,0,0,1-3.935,1.212,31.345,31.345,0,0,0-8.923.962c.676,25.63,3.108,49.372,11.827,63.927,5.252-1.515,11.624-3.95,15.146-6.919-2.87-9.739-6.263-23.7-8.788-35.9l27.955-49.926Z" transform="translate(2047.367 140.199)" fill="#1f3c88"/>
          <path id="Path_4250" data-name="Path 4250" d="M-2046.373-29.768c-9.625,5.479-17.627-4.5-17.627-4.5l16.332-.869C-2047.492-34.2-2046.91-32.191-2046.373-29.768Z" transform="translate(2109 105.683)" fill="#e28b6d"/>
          <path id="Path_4251" data-name="Path 4251" d="M-2092.128-55.54c1.18-1.526,1.72-4.091.655-9.256,3.506,3.966,8.719,4.893,16.361,1.5,0,0,4.971-1.945,3.833-7.012-1.029-4.581-4.861-7.012-7.854-3.272-6.788-1.981-13.463-2.337-16.455,3.833,0,0-9.537,4.955-1.4,13Z" transform="translate(2137.285 137.088)" fill="#102048"/>
          <g id="Group_58077" data-name="Group 58077" transform="translate(16.847 174.558)">
            <path id="Path_4252" data-name="Path 4252" d="M-2177.427,450.012l-1.643-.366,1.714-7.679-11.33-2.755-1.5,7.008-1.646-.353,1.864-8.7,14.615,3.555Z" transform="translate(2191.833 -437.166)" fill="#1f3c88"/>
          </g>
          <path id="Path_4253" data-name="Path 4253" d="M-2170.394,385.565c-.28.39-1.309,8.3-1.309,8.3s-4.581,4.3-1.5,6.931,6.825,2.538,8.6.586a11.555,11.555,0,0,0-.094-6.833l1.776-8.786Z" transform="translate(2194.983 -222.371)" fill="#f9b384"/>
          <path id="Path_4254" data-name="Path 4254" d="M-2214.473,463.62l-4.521,19.151-1.739,7.393-29.361-11.029,3.871-16.145,1.84-7.7Z" transform="translate(2254.111 -276.745)" fill="#acbfee"/>
          <g id="Group_58080" data-name="Group 58080" transform="translate(77.437 18.414)">
            <path id="Path_4255" data-name="Path 4255" d="M-1772.425-96.267l-15.59,9.451-.7-5.481,11.753-7.125Z" transform="translate(1816.903 137.392)" fill="#6f3428"/>
            <path id="Path_4256" data-name="Path 4256" d="M-1800.709-140.628l-4,2.423-9.49-13.49,5.916-3.587Z" transform="translate(1836.773 180.95)" fill="#bb9132"/>
            <path id="Path_4257" data-name="Path 4257" d="M-1872.862-239.223l-7.509,4.552a3.963,3.963,0,0,1-5.109-.864l-12.566-15.2,19.12-11.591,7.661,18.169A3.964,3.964,0,0,1-1872.862-239.223Z" transform="translate(1902.157 264.416)" fill="#fbc343"/>
            <g id="Group_58078" data-name="Group 58078" transform="translate(22.529)">
              <path id="Path_4258" data-name="Path 4258" d="M-1808.574-256.228l-1.035-.431c2.886-6.947,2.383-12.59.263-13.835-1.1-.647-2.63.116-4.191,2.095l-.881-.7c2.764-3.5,4.865-2.822,5.641-2.367C-1806.2-269.946-1805.414-263.834-1808.574-256.228Z" transform="translate(1814.419 271.836)" fill="#fbc343"/>
            </g>
            <g id="Group_58079" data-name="Group 58079" transform="translate(0 13.557)">
              <path id="Path_4259" data-name="Path 4259" d="M-1903.3-199.147c-8.2-.716-13.261-4.237-13.411-7.227-.045-.9.324-3.075,4.707-3.9l.208,1.1c-2.476.469-3.859,1.47-3.8,2.747.123,2.455,4.894,5.511,12.387,6.166Z" transform="translate(1916.714 210.279)" fill="#fbc343"/>
            </g>
            <path id="Path_4260" data-name="Path 4260" d="M-1825.854-227.993c-.658-1.14-.625-2.393.075-2.8s1.8.193,2.46,1.333.625,2.393-.075,2.8S-1825.2-226.852-1825.854-227.993Z" transform="translate(1846.233 239.928)" fill="#fff" opacity="0.6"/>
          </g>
          <path id="Path_4261" data-name="Path 4261" d="M-1775.664-133.284c.273,1.944-.955,3.68-3.548,3.68-1.62,0-3.888-2.222-4.366-4.86-.394-2.175.442-3.6,1.979-4.235C-1780.023-139.349-1776.178-136.951-1775.664-133.284Z" transform="translate(1890.411 186.517)" fill="#f9b384"/>
          <g id="Group_58084" data-name="Group 58084" transform="translate(64.62)">
            <g id="Group_58081" data-name="Group 58081" transform="translate(0 17.88)">
              <rect id="Rectangle_1541" data-name="Rectangle 1541" width="1.762" height="14.312" transform="translate(0 1.68) rotate(-72.512)" fill="#fbc343"/>
            </g>
            <g id="Group_58082" data-name="Group 58082" transform="translate(27.262)">
              <rect id="Rectangle_1542" data-name="Rectangle 1542" width="14.312" height="1.761" transform="translate(0 14.093) rotate(-79.986)" fill="#fbc343"/>
            </g>
            <g id="Group_58083" data-name="Group 58083" transform="translate(11.092 3.711)">
              <rect id="Rectangle_1543" data-name="Rectangle 1543" width="1.761" height="14.311" transform="matrix(0.842, -0.539, 0.539, 0.842, 0, 0.95)" fill="#fbc343"/>
            </g>
          </g>
          <path id="Path_4262" data-name="Path 4262" d="M-2153.519,122.987l-2.244,33.845a57.832,57.832,0,0,0,20.942-4.675c1.088-20.2-1.506-42.8-9.5-63.132-20.306,7.546-26.034,32.549-29.046,69.7l11.9,1.38Z" transform="translate(2194.282 8.861)" fill="#1f3c88"/>
          <path id="Path_4263" data-name="Path 4263" d="M-2085.344,9.872c-3.82,1.363-6.262,1.054-6.465-2.6a2.884,2.884,0,0,1,3.945-2.88,6.462,6.462,0,0,1,2.333,2.111Z" transform="translate(2130.688 75.042)" fill="#f9b384"/>
          <path id="Path_4264" data-name="Path 4264" d="M-2219,510.022l-1.739,7.393-29.36-11.029,3.871-16.145C-2242.612,497.714-2234.971,506.981-2219,510.022Z" transform="translate(2254.111 -303.995)" fill="#102048" opacity="0.15"/>
          <path id="Path_4265" data-name="Path 4265" d="M-1915.456,122.871c.505,1.606.945,3.227,1.37,4.852s.821,3.256,1.2,4.89.736,3.275,1.055,4.923.629,3.3.858,4.969l-.428.1c-.518-1.6-.954-3.225-1.385-4.848s-.817-3.257-1.189-4.893-.729-3.277-1.04-4.927-.631-3.3-.874-4.965Z" transform="translate(1993.503 -17.531)" fill="#102048"/>
          <path id="Path_4266" data-name="Path 4266" d="M-2085.593,191.415c.056,1.627.046,3.251.021,4.874s-.081,3.245-.149,4.866-.168,3.24-.3,4.858-.278,3.235-.5,4.849l-.438-.021c-.07-1.628-.056-3.251-.036-4.875s.085-3.245.165-4.865.176-3.24.318-4.858.276-3.235.488-4.849Z" transform="translate(2126.949 -70.963)" fill="#102048"/>
          <path id="Path_4267" data-name="Path 4267" d="M-2009.461,476.862c.5-1.852,1.072-3.682,1.653-5.506s1.213-3.632,1.816-5.45q.954-2.708,1.955-5.4c.687-1.788,1.378-3.575,2.149-5.333l.414.144c-.491,1.857-1.062,3.685-1.638,5.512q-.89,2.731-1.831,5.444c-.659,1.8-1.278,3.61-1.971,5.4s-1.375,3.575-2.133,5.339Z" transform="translate(2066.473 -276.648)" fill="#708cd5"/>
          <path id="Path_4268" data-name="Path 4268" d="M-2082.533,12.527c-.2-.275-.379-.558-.572-.819a4.08,4.08,0,0,0-.607-.7.675.675,0,0,0-.624-.233c-.232.03-.463.278-.72.485l-.217-.137a1.508,1.508,0,0,1,.747-.888,1.188,1.188,0,0,1,1.242.285,3.534,3.534,0,0,1,.99,1.914Z" transform="translate(2125.588 70.36)" fill="#102048"/>
          <path id="Path_4269" data-name="Path 4269" d="M-1794.708-122.241c.409-1.547.2-2.944-.47-3.121s-1.7.547-2.1,2.094-.878,3.775.176,4.273C-1795.239-118.114-1795.116-120.694-1794.708-122.241Z" transform="translate(1901.385 176.054)" fill="#f9b384"/>
        </g>
      </g>
    </g>
  </g>
</svg>
