<svg xmlns="http://www.w3.org/2000/svg" width="40.55" height="42.667" viewBox="0 0 40.55 42.667">
  <g id="lamp" transform="translate(4.072 -3.746) rotate(11)" opacity="0.2">
    <g id="Group_57235" data-name="Group 57235" transform="translate(8.537 8.537)">
      <path id="Path_2901" data-name="Path 2901" d="M19.513,37.44H14.391a2.772,2.772,0,0,1-2.561-3.073V30.781a5.929,5.929,0,0,0-2.22-4.439A11.8,11.8,0,0,1,5,16.781,12.151,12.151,0,0,1,16.781,5a12,12,0,0,1,8.537,3.415A12.155,12.155,0,0,1,28.9,16.952a11.482,11.482,0,0,1-4.439,9.22,6.234,6.234,0,0,0-2.39,4.781v3.927a2.626,2.626,0,0,1-2.561,2.561ZM16.952,6.707A10.472,10.472,0,0,0,6.707,16.781a10.036,10.036,0,0,0,3.927,8.2,7.44,7.44,0,0,1,2.9,5.805v3.585c0,.341,0,1.366.854,1.366h5.122a.807.807,0,0,0,.854-.854V30.952a8.3,8.3,0,0,1,3.073-6.147A9.956,9.956,0,0,0,27.2,16.952,10.206,10.206,0,0,0,24.123,9.61a10.064,10.064,0,0,0-7.171-2.9Z" transform="translate(-5 -5)" fill="#002158"/>
    </g>
    <g id="Group_57236" data-name="Group 57236" transform="translate(15.366 34.147)">
      <path id="Path_2902" data-name="Path 2902" d="M18.391,21.707H9.854a.854.854,0,1,1,0-1.707h8.537a.854.854,0,1,1,0,1.707Z" transform="translate(-9 -20)" fill="#002158"/>
    </g>
    <g id="Group_57237" data-name="Group 57237" transform="translate(19.635)">
      <path id="Path_2903" data-name="Path 2903" d="M12.354,5.122a.807.807,0,0,1-.854-.854V.854a.854.854,0,0,1,1.707,0V4.268A.807.807,0,0,1,12.354,5.122Z" transform="translate(-11.5)" fill="#002158"/>
    </g>
    <g id="Group_57238" data-name="Group 57238" transform="translate(30.989 5.89)">
      <path id="Path_2904" data-name="Path 2904" d="M19.089,7.462a1.027,1.027,0,0,1-.683-.171.825.825,0,0,1,0-1.2l2.39-2.39a.845.845,0,1,1,1.2,1.2L19.6,7.292a1.72,1.72,0,0,1-.512.171Z" transform="translate(-18.15 -3.45)" fill="#002158"/>
    </g>
    <g id="Group_57239" data-name="Group 57239" transform="translate(35.855 19.635)">
      <path id="Path_2905" data-name="Path 2905" d="M25.268,13.207H21.854a.854.854,0,0,1,0-1.707h3.415a.854.854,0,1,1,0,1.707Z" transform="translate(-21 -11.5)" fill="#002158"/>
    </g>
    <g id="Group_57240" data-name="Group 57240" transform="translate(30.989 31.159)">
      <path id="Path_2906" data-name="Path 2906" d="M21.479,22.262a1.027,1.027,0,0,1-.683-.171l-2.39-2.39a.845.845,0,0,1,1.2-1.2l2.39,2.39a.825.825,0,0,1,0,1.2c0,.171-.171.171-.512.171Z" transform="translate(-18.15 -18.25)" fill="#002158"/>
    </g>
    <g id="Group_57241" data-name="Group 57241" transform="translate(5.72 31.159)">
      <path id="Path_2907" data-name="Path 2907" d="M4.289,22.262a1.027,1.027,0,0,1-.683-.171.825.825,0,0,1,0-1.2L6,18.506a.845.845,0,0,1,1.2,1.2L4.8,22.092A.627.627,0,0,1,4.289,22.262Z" transform="translate(-3.35 -18.25)" fill="#002158"/>
    </g>
    <g id="Group_57242" data-name="Group 57242" transform="translate(0 19.635)">
      <path id="Path_2908" data-name="Path 2908" d="M4.268,13.207H.854a.854.854,0,0,1,0-1.707H4.268a.854.854,0,1,1,0,1.707Z" transform="translate(0 -11.5)" fill="#002158"/>
    </g>
    <g id="Group_57243" data-name="Group 57243" transform="translate(5.72 5.72)">
      <path id="Path_2909" data-name="Path 2909" d="M6.679,7.533A1.027,1.027,0,0,1,6,7.362L3.606,4.8a.845.845,0,0,1,1.2-1.2L7.192,6a.825.825,0,0,1,0,1.2c-.171.171-.341.341-.512.341Z" transform="translate(-3.35 -3.35)" fill="#002158"/>
    </g>
    <g id="Group_57244" data-name="Group 57244" transform="translate(19.635 12.805)">
      <path id="Path_2910" data-name="Path 2910" d="M19.183,16.037a.807.807,0,0,1-.854-.854,6.049,6.049,0,0,0-5.976-5.976.807.807,0,0,1-.854-.854.807.807,0,0,1,.854-.854,7.651,7.651,0,0,1,7.683,7.683A.807.807,0,0,1,19.183,16.037Z" transform="translate(-11.5 -7.5)" fill="#002158"/>
    </g>
  </g>
</svg>
