<svg xmlns="http://www.w3.org/2000/svg" width="200" height="200" viewBox="0 0 200 200">
  <g id="mothion-graphic" transform="translate(-852 -1224)">
    <g id="Ellipse_737" data-name="Ellipse 737" transform="translate(852 1224)" fill="none" stroke="#112459" stroke-width="1" stroke-dasharray="10" opacity="0.4">
      <circle cx="100" cy="100" r="100" stroke="none"/>
      <circle cx="100" cy="100" r="99.5" fill="none"/>
    </g>
    <g id="camping-tent" transform="translate(904 1265.949)">
      <path id="Path_4183" data-name="Path 4183" d="M.558,162.137a1.4,1.4,0,0,0,1.354.193l1.425,3.529a1.411,1.411,0,0,0,.431,2.755H92.575a1.411,1.411,0,0,0,.43-2.755l1.425-3.529a1.41,1.41,0,0,0,1.626-2.171l-.494-.651a1.412,1.412,0,0,0-1.375-1.812L52.33,102.522a5,5,0,0,0-2.747-2.578V93.228a1.411,1.411,0,1,0-2.823,0v6.716a5,5,0,0,0-2.747,2.578L2.156,157.7a1.412,1.412,0,0,0-1.375,1.812l-.494.651a1.412,1.412,0,0,0,.271,1.978Zm46.2-31.381H38.526a4.494,4.494,0,0,0-4.489,4.489v30.547H7.943L46.76,103.451C46.76,103.833,46.76,126.625,46.76,130.757Zm-9.9,4.489a1.668,1.668,0,0,1,1.666-1.666H46.76v32.213h-9.9Zm25.447,30.547V153.925a1.411,1.411,0,1,0-2.823,0v11.867h-9.9V133.579h8.235a1.668,1.668,0,0,1,1.666,1.666v12.094a1.411,1.411,0,1,0,2.823,0V135.245a4.494,4.494,0,0,0-4.489-4.489H49.583V103.45L88.4,165.792H62.306Zm30.044-5.847L90.672,164.1,68.553,128.577ZM5.671,164.1l-1.678-4.156,23.8-31.368Z" transform="translate(0 -64.756)" fill="#42b39a"/>
      <path id="Path_4184" data-name="Path 4184" d="M423.1,57.934a1.411,1.411,0,0,0-1.411,1.411v.277h-.277a1.411,1.411,0,1,0,0,2.823h.277v.277a1.411,1.411,0,1,0,2.823,0v-.277h.277a1.411,1.411,0,1,0,0-2.823h-.277v-.277A1.411,1.411,0,0,0,423.1,57.934Z" transform="translate(-340.965 -37.249)" fill="#fc8e0b"/>
      <path id="Path_4185" data-name="Path 4185" d="M384.839,12.051a1.411,1.411,0,0,0-1.411,1.411V14.55h-1.088a1.411,1.411,0,1,0,0,2.823h1.088v1.088a1.411,1.411,0,0,0,2.823,0V17.373h1.088a1.411,1.411,0,1,0,0-2.823H386.25V13.462A1.411,1.411,0,0,0,384.839,12.051Z" transform="translate(-309.247 0)" fill="#fc8e0b"/>
      <path id="Path_4186" data-name="Path 4186" d="M326.523,50.189A12.511,12.511,0,1,0,342.45,68.578,2.033,2.033,0,0,0,340.4,65.4a9.47,9.47,0,0,1-6.64-1.06,1.411,1.411,0,0,0-1.4,2.45,12.185,12.185,0,0,0,6.49,1.621,9.687,9.687,0,1,1-12.671-14.642,12.3,12.3,0,0,0,1.1,7.621,1.411,1.411,0,0,0,2.53-1.252,9.532,9.532,0,0,1-.436-7.463,2.036,2.036,0,0,0-2.853-2.49Z" transform="translate(-259.591 -30.77)" fill="#fc8e0b"/>
    </g>
  </g>
</svg>
