<svg id="students" xmlns="http://www.w3.org/2000/svg" width="191.575" height="191.575" viewBox="0 0 191.575 191.575">
  <defs>
    <style>
      .cls-1 {
        fill: #3ebfab;
      }

      .cls-2 {
        fill: #faa220;
      }
    </style>
  </defs>
  <g id="Group_57399" data-name="Group 57399">
    <g id="Group_57398" data-name="Group 57398">
      <path id="Path_3547" data-name="Path 3547" class="cls-1" d="M191.575,112.251V10.477A10.489,10.489,0,0,0,181.1,0H10.477A10.489,10.489,0,0,0,0,10.477V112.251a10.489,10.489,0,0,0,10.477,10.477h15.9a19.318,19.318,0,0,0-11.247,17.53v4.058a19.194,19.194,0,0,0,3.862,11.568L9.676,158.97A14.094,14.094,0,0,0,0,172.37v15.464a3.742,3.742,0,0,0,3.742,3.742H187.834a3.742,3.742,0,0,0,3.742-3.742V172.37a14.1,14.1,0,0,0-9.676-13.4l-9.314-3.087a19.194,19.194,0,0,0,3.862-11.568v-4.057a19.318,19.318,0,0,0-11.246-17.53h15.9A10.488,10.488,0,0,0,191.575,112.251ZM22.61,140.258h0a11.812,11.812,0,1,1,23.625,0v4.058a11.81,11.81,0,0,1-5.208,9.789,3.762,3.762,0,0,0-.623.391,11.774,11.774,0,0,1-11.963,0,3.76,3.76,0,0,0-.624-.391,11.81,11.81,0,0,1-5.208-9.789Zm38.753,43.834H7.483V172.37a6.623,6.623,0,0,1,4.546-6.3l13.7-4.54a19.227,19.227,0,0,0,17.388,0l13.7,4.54a6.623,6.623,0,0,1,4.547,6.3Zm3.742-21.3a14.1,14.1,0,0,0-5.934-3.821l-9.314-3.087a19.194,19.194,0,0,0,3.862-11.568v-4.058a19.318,19.318,0,0,0-11.246-17.53H87.739a19.318,19.318,0,0,0-11.247,17.53v4.058a19.194,19.194,0,0,0,3.862,11.568L71.04,158.97A14.1,14.1,0,0,0,65.106,162.792Zm30.682-34.346A11.826,11.826,0,0,1,107.6,140.258v4.058a11.81,11.81,0,0,1-5.208,9.789,3.762,3.762,0,0,0-.623.391,11.774,11.774,0,0,1-11.963,0,3.744,3.744,0,0,0-.623-.391,11.809,11.809,0,0,1-5.208-9.789v-4.057A11.826,11.826,0,0,1,95.788,128.446Zm26.94,55.646H68.847V172.37a6.623,6.623,0,0,1,4.546-6.3l13.7-4.54a19.227,19.227,0,0,0,17.388,0l13.7,4.54a6.623,6.623,0,0,1,4.547,6.3v11.722Zm3.742-21.3a14.1,14.1,0,0,0-5.934-3.821l-9.314-3.087a19.194,19.194,0,0,0,3.862-11.568v-4.058a19.318,19.318,0,0,0-11.246-17.53H149.1a19.318,19.318,0,0,0-11.247,17.53v4.058a19.194,19.194,0,0,0,3.862,11.568L132.4,158.97A14.1,14.1,0,0,0,126.47,162.792Zm53.075,3.282a6.622,6.622,0,0,1,4.547,6.3v11.722H130.211V172.37a6.623,6.623,0,0,1,4.546-6.3l13.7-4.54a19.227,19.227,0,0,0,17.388,0Zm-10.581-25.815v4.058a11.809,11.809,0,0,1-5.208,9.789,3.768,3.768,0,0,0-.622.39,11.774,11.774,0,0,1-11.963,0,3.773,3.773,0,0,0-.624-.391,11.81,11.81,0,0,1-5.207-9.789v-4.057a11.812,11.812,0,1,1,23.625,0ZM27.693,115.245V35.172a3.742,3.742,0,1,0-7.483,0v80.072H10.477a3,3,0,0,1-2.993-2.993V10.477a3,3,0,0,1,2.993-2.993H163.892v82.5a3.742,3.742,0,1,0,7.483,0V7.483H181.1a3,3,0,0,1,2.993,2.993V112.251a3,3,0,0,1-2.993,2.993Z"/>
    </g>
  </g>
  <g id="Group_57401" data-name="Group 57401" transform="translate(81.67 40.753)">
    <g id="Group_57400" data-name="Group 57400">
      <path id="Path_3548" data-name="Path 3548" class="cls-2" d="M250.258,122.712,230.731,110.2a8.094,8.094,0,0,0-12.462,6.814v25.032a8.094,8.094,0,0,0,12.462,6.815l19.526-12.516a8.095,8.095,0,0,0,0-13.63Zm-4.038,7.329-19.526,12.516a.611.611,0,0,1-.941-.514V117.011a.567.567,0,0,1,.318-.536.62.62,0,0,1,.3-.083.585.585,0,0,1,.323.1l19.526,12.516a.611.611,0,0,1,0,1.029Z" transform="translate(-218.269 -108.917)"/>
    </g>
  </g>
  <g id="Group_57403" data-name="Group 57403" transform="translate(54.634 20.205)">
    <g id="Group_57402" data-name="Group 57402">
      <path id="Path_3549" data-name="Path 3549" class="cls-1" d="M187.172,54a41.159,41.159,0,1,0,41.159,41.159A41.205,41.205,0,0,0,187.172,54Zm0,74.834a33.675,33.675,0,1,1,33.675-33.675A33.714,33.714,0,0,1,187.172,128.834Z" transform="translate(-146.013 -54)"/>
    </g>
  </g>
  <g id="Group_57405" data-name="Group 57405" transform="translate(163.892 100.165)">
    <g id="Group_57404" data-name="Group 57404">
      <path id="Path_3550" data-name="Path 3550" class="cls-2" d="M444.4,268.8a3.74,3.74,0,1,0,1.1,2.645A3.77,3.77,0,0,0,444.4,268.8Z" transform="translate(-438.013 -267.7)"/>
    </g>
  </g>
  <g id="Group_57407" data-name="Group 57407" transform="translate(20.21 16.838)">
    <g id="Group_57406" data-name="Group 57406">
      <path id="Path_3551" data-name="Path 3551" class="cls-2" d="M60.4,46.1a3.74,3.74,0,1,0,1.1,2.645A3.77,3.77,0,0,0,60.4,46.1Z" transform="translate(-54.013 -45)"/>
    </g>
  </g>
</svg>
