<svg xmlns="http://www.w3.org/2000/svg" width="444.21" height="129.809" viewBox="0 0 444.21 129.809">
  <g id="right-arrow" transform="translate(-765.635 -1757.623)">
    <path id="right-arrow-2" data-name="right-arrow" d="M11710.8-1833.208s307.575-108.646,423.872,70.39" transform="translate(-10945 3624)" fill="none" stroke="#112459" stroke-width="1" stroke-dasharray="10" opacity="0.4"/>
    <g id="Group_58172" data-name="Group 58172" transform="translate(-1957.092 -337.512) rotate(-34)">
      <path id="fi-sr-angle-down" d="M13.969,6.012l-5.12,5.121a1.883,1.883,0,0,1-2.659,0L1.07,6.012A.627.627,0,1,0,.184,6.9L5.3,12.018a3.138,3.138,0,0,0,4.431,0L14.855,6.9a.627.627,0,1,0-.886-.886Z" transform="translate(1371 3581.172)" fill="#fabd1e"/>
      <path id="fi-sr-angle-down-2" data-name="fi-sr-angle-down" d="M13.969,6.012l-5.12,5.121a1.883,1.883,0,0,1-2.659,0L1.07,6.012A.627.627,0,1,0,.184,6.9L5.3,12.018a3.138,3.138,0,0,0,4.431,0L14.855,6.9a.627.627,0,1,0-.886-.886Z" transform="translate(1371 3588.065)" fill="#fabd1e"/>
      <path id="fi-sr-angle-down-3" data-name="fi-sr-angle-down" d="M13.969,6.012l-5.12,5.121a1.883,1.883,0,0,1-2.659,0L1.07,6.012A.627.627,0,1,0,.184,6.9L5.3,12.018a3.138,3.138,0,0,0,4.431,0L14.855,6.9a.627.627,0,1,0-.886-.886Z" transform="translate(1371 3595.584)" fill="#fabd1e"/>
    </g>
  </g>
</svg>
