<svg xmlns="http://www.w3.org/2000/svg" width="146.528" height="191.575" viewBox="0 0 146.528 191.575">
  <defs>
    <style>
      .cls-1 {
        fill: #faa220;
      }

      .cls-2 {
        fill: #3ebfab;
      }
    </style>
  </defs>
  <g id="Group_57414" data-name="Group 57414" transform="translate(-669 -1302)">
    <g id="smiley" transform="translate(715.227 1333.915)">
      <g id="Group_57412" data-name="Group 57412" transform="translate(0 0)">
        <path id="Path_3566" data-name="Path 3566" class="cls-1" d="M421.827,66.893l1.526,4.29a.688.688,0,0,0,.358.4l3.812,1.717a.76.76,0,0,1,0,1.343l-3.812,1.717a.688.688,0,0,0-.358.4l-1.526,4.29a.619.619,0,0,1-1.193,0l-1.526-4.29a.689.689,0,0,0-.358-.4l-3.812-1.717a.76.76,0,0,1,0-1.343l3.812-1.717a.689.689,0,0,0,.358-.4l1.526-4.29A.619.619,0,0,1,421.827,66.893Z" transform="translate(-343.188 -54.294)"/>
        <path id="Path_3567" data-name="Path 3567" class="cls-1" d="M118.228.337,119.36,3.52a.511.511,0,0,0,.265.3l2.828,1.274a.564.564,0,0,1,0,1l-2.828,1.274a.51.51,0,0,0-.265.3l-1.132,3.183a.459.459,0,0,1-.885,0l-1.132-3.183a.511.511,0,0,0-.265-.3l-2.828-1.274a.564.564,0,0,1,0-1l2.828-1.274a.51.51,0,0,0,.265-.3L117.343.337a.459.459,0,0,1,.885,0Z" transform="translate(-96.62 0)"/>
        <path id="Path_3568" data-name="Path 3568" class="cls-1" d="M375.213,28.178a2.242,2.242,0,1,1-2.242-2.242A2.242,2.242,0,0,1,375.213,28.178Z" transform="translate(-307.389 -21.195)"/>
        <path id="Path_3569" data-name="Path 3569" class="cls-1" d="M30.82,91.719a3.312,3.312,0,1,1-3.312-3.312A3.312,3.312,0,0,1,30.82,91.719Z" transform="translate(-24.197 -72.248)"/>
      </g>
      <g id="Group_57413" data-name="Group 57413" transform="translate(2.957 17.861)">
        <path id="Path_3570" data-name="Path 3570" class="cls-1" d="M78.235,173.443A37.862,37.862,0,1,1,116.1,135.582a37.9,37.9,0,0,1-37.862,37.862Zm0-72.047a34.185,34.185,0,1,0,34.185,34.185A34.224,34.224,0,0,0,78.235,101.4Z" transform="translate(-40.373 -97.72)"/>
        <path id="Path_3571" data-name="Path 3571" class="cls-1" d="M130.522,210.961a1.838,1.838,0,0,1-1.838-1.838,5.116,5.116,0,1,0-10.232,0,1.838,1.838,0,1,1-3.676,0,8.792,8.792,0,0,1,17.585,0A1.839,1.839,0,0,1,130.522,210.961Z" transform="translate(-101.176 -181.576)"/>
        <path id="Path_3572" data-name="Path 3572" class="cls-1" d="M299.794,210.961a1.838,1.838,0,0,1-1.838-1.838,5.116,5.116,0,1,0-10.232,0,1.838,1.838,0,1,1-3.676,0,8.792,8.792,0,0,1,17.585,0A1.839,1.839,0,0,1,299.794,210.961Z" transform="translate(-239.508 -181.576)"/>
        <path id="Path_3573" data-name="Path 3573" class="cls-1" d="M154.386,298.535H105.461a1.838,1.838,0,0,0-1.838,1.838,26.3,26.3,0,1,0,52.6,0A1.838,1.838,0,0,0,154.386,298.535ZM115.96,318.161c2.509-4.021,7.92-6.643,13.963-6.643s11.454,2.622,13.963,6.643a22.574,22.574,0,0,1-27.927,0Zm30.652-2.53c-3.313-4.74-9.684-7.789-16.689-7.789s-13.377,3.049-16.689,7.789a22.544,22.544,0,0,1-5.861-13.419h45.1A22.541,22.541,0,0,1,146.613,315.631Z" transform="translate(-92.062 -261.83)"/>
      </g>
    </g>
    <g id="book" transform="translate(669 1302)">
      <path id="Path_3574" data-name="Path 3574" class="cls-2" d="M12.967,174.2a2.737,2.737,0,0,1-2.737-2.737V23.894A21.919,21.919,0,0,1,32.124,2h7.581a2.737,2.737,0,1,1,0,5.474H32.124A16.437,16.437,0,0,0,15.7,23.894V171.462A2.737,2.737,0,0,1,12.967,174.2Z" transform="translate(-10.23 -2)"/>
      <path id="Path_3575" data-name="Path 3575" class="cls-2" d="M137.053,154.822H22.737A2.737,2.737,0,0,1,20,152.086V4.737A2.737,2.737,0,0,1,22.737,2H137.053a2.737,2.737,0,0,1,2.737,2.737V152.086A2.737,2.737,0,0,1,137.053,154.822ZM25.474,149.349H134.316V7.474H25.474Z" transform="translate(6.738 -2)"/>
      <path id="Path_3576" data-name="Path 3576" class="cls-2" d="M154.021,100.067H32.343a22.113,22.113,0,1,1,0-44.227H154.021a2.737,2.737,0,0,1,2.737,2.737V97.33A2.737,2.737,0,0,1,154.021,100.067ZM32.343,61.314a16.64,16.64,0,0,0,0,33.279H151.284V61.314Z" transform="translate(-10.23 91.509)"/>
      <path id="Path_3578" data-name="Path 3578" class="cls-2" d="M112.363,68.394H22.279a2.737,2.737,0,1,1,0-5.474h90.084a2.737,2.737,0,0,1,0,5.474Z" transform="translate(5.943 103.805)"/>
    </g>
  </g>
</svg>
