<svg xmlns="http://www.w3.org/2000/svg" width="101" height="101" viewBox="0 0 101 101">
  <g id="vid-logo" transform="translate(-1665 -2658)">
    <g id="Rectangle_1114" data-name="Rectangle 1114" transform="translate(1665 2658)" fill="#ffe1a8" stroke="#000" stroke-linecap="round" stroke-width="2" stroke-dasharray="84 124">
      <path d="M0,0H101a0,0,0,0,1,0,0V51a50,50,0,0,1-50,50H50A50,50,0,0,1,0,51V0A0,0,0,0,1,0,0Z" stroke="none"/>
      <path d="M2,1H99a1,1,0,0,1,1,1V51a49,49,0,0,1-49,49H50A49,49,0,0,1,1,51V2A1,1,0,0,1,2,1Z" fill="none"/>
    </g>
    <g id="code" transform="translate(1688.168 2680.75)">
      <path id="Path_3438" data-name="Path 3438" d="M141.235,453.573H112.222a.753.753,0,0,1-.753-.753v-3.295a1.916,1.916,0,0,1,1.916-1.916h26.686a1.916,1.916,0,0,1,1.916,1.916v3.295A.753.753,0,0,1,141.235,453.573Zm0,0" transform="translate(-99.568 -399.374)" fill="#a1a1a7"/>
      <path id="Path_3439" data-name="Path 3439" d="M363.147,449.526v3.294a.753.753,0,0,1-.753.753h-2.168a.753.753,0,0,0,.753-.753v-3.294a1.916,1.916,0,0,0-1.916-1.916h2.168A1.916,1.916,0,0,1,363.147,449.526Zm0,0" transform="translate(-320.727 -399.374)" fill="#929298"/>
      <path id="Path_3440" data-name="Path 3440" d="M191.672,399.352h13.393V404.5H191.672Zm0,0" transform="translate(-171.208 -356.269)" fill="#7c8388"/>
      <path id="Path_3441" data-name="Path 3441" d="M297.078,399.352h2.139V404.5h-2.139Zm0,0" transform="translate(-265.36 -356.269)" fill="#6a7075"/>
      <path id="Path_3442" data-name="Path 3442" d="M55.788,49.779H12.268A4.771,4.771,0,0,1,7.5,45.008V12.768A4.772,4.772,0,0,1,12.268,8h43.52a4.772,4.772,0,0,1,4.771,4.771v32.24A4.771,4.771,0,0,1,55.788,49.779Zm0,0" transform="translate(-6.696 -6.696)" fill="#ffe1a8"/>
      <path id="Path_3443" data-name="Path 3443" d="M55.788,346.4H12.268A4.771,4.771,0,0,1,7.5,341.632v-1.557H60.56v1.557a4.771,4.771,0,0,1-4.771,4.771Zm0,0" transform="translate(-6.696 -303.32)" fill="#a1a1a7"/>
      <path id="Path_3444" data-name="Path 3444" d="M442.511,12.772V45.011a4.771,4.771,0,0,1-4.771,4.772H435.1a4.772,4.772,0,0,0,4.772-4.772V12.772A4.772,4.772,0,0,0,435.1,8h2.639a4.771,4.771,0,0,1,4.771,4.772Zm0,0" transform="translate(-388.648 -6.699)" fill="#ffd98f"/>
      <path id="Path_3445" data-name="Path 3445" d="M442.511,340.07v1.558a4.771,4.771,0,0,1-4.771,4.772H435.1a4.772,4.772,0,0,0,4.772-4.772V340.07Zm0,0" transform="translate(-388.648 -303.316)" fill="#929298"/>
      <path id="Path_3446" data-name="Path 3446" d="M98.229,84.518H55.559V57.1a3.124,3.124,0,0,1,3.125-3.125H95.105A3.124,3.124,0,0,1,98.23,57.1Zm0,0" transform="translate(-49.627 -47.763)" fill="#fff5f5"/>
      <path id="Path_3447" data-name="Path 3447" d="M411.109,57.1V84.518H408.96V57.1a3.124,3.124,0,0,0-3.125-3.125h2.149A3.125,3.125,0,0,1,411.109,57.1Zm0,0" transform="translate(-362.506 -47.764)" fill="#efe2dd"/>
      <path id="Path_3448" data-name="Path 3448" d="M98.229,60.852H55.559V57.1a3.124,3.124,0,0,1,3.125-3.125H95.105A3.124,3.124,0,0,1,98.23,57.1Zm0,0" transform="translate(-49.627 -47.763)" fill="#aed3ff"/>
      <path id="Path_3449" data-name="Path 3449" d="M411.109,57.1v3.755H408.96V57.1a3.124,3.124,0,0,0-3.125-3.125h2.149A3.125,3.125,0,0,1,411.109,57.1Zm0,0" transform="translate(-362.506 -47.764)" fill="#83bfff"/>
      <g id="Group_57362" data-name="Group 57362" transform="translate(12.969 17.904)">
        <path id="Path_3450" data-name="Path 3450" d="M126.919,163.516a1.992,1.992,0,0,0-1.666.9l-3.456,5.277a1.991,1.991,0,0,0,0,2.182l3.456,5.277a1.991,1.991,0,0,0,3.331-2.182l-2.027-3.095a1.991,1.991,0,0,1,0-2.182l2.027-3.095A1.991,1.991,0,0,0,126.919,163.516Zm0,0" transform="translate(-121.472 -163.516)" fill="#87c080"/>
        <path id="Path_3451" data-name="Path 3451" d="M321.615,163.516a1.992,1.992,0,0,1,1.666.9l3.456,5.277a1.99,1.99,0,0,1,0,2.182l-3.456,5.277a1.991,1.991,0,0,1-3.331-2.182l2.027-3.095a1.99,1.99,0,0,0,0-2.182l-2.027-3.095A1.991,1.991,0,0,1,321.615,163.516Zm0,0" transform="translate(-298.465 -163.516)" fill="#87c080"/>
        <path id="Path_3452" data-name="Path 3452" d="M223.252,178.05a1.87,1.87,0,0,1-1.759-2.5l3.885-10.8a1.87,1.87,0,1,1,3.519,1.267l-3.885,10.795a1.87,1.87,0,0,1-1.76,1.237Zm0,0" transform="translate(-210.714 -163.516)" fill="#87c080"/>
      </g>
      <path id="Path_3453" data-name="Path 3453" d="M151.547,176.058a1.992,1.992,0,0,1-3.017,1.712,2.016,2.016,0,0,0,.963-1.712,1.972,1.972,0,0,0-.328-1.086l-2.027-3.1a1.987,1.987,0,0,1,0-2.182l2.027-3.1a1.994,1.994,0,0,0-.635-2.8,1.99,1.99,0,0,1,2.689,2.8l-2.027,3.1a1.987,1.987,0,0,0,0,2.182l2.027,3.1A1.969,1.969,0,0,1,151.547,176.058Zm0,0" transform="translate(-131.137 -145.615)" fill="#70b568"/>
      <path id="Path_3454" data-name="Path 3454" d="M334.793,171.877l-3.455,5.277a2,2,0,0,1-2.7.616,1.958,1.958,0,0,0,.643-.616l3.455-5.277a1.989,1.989,0,0,0,0-2.181l-3.455-5.277a1.967,1.967,0,0,0-.643-.615,1.972,1.972,0,0,1,1.031-.284,1.994,1.994,0,0,1,1.666.9l3.455,5.277A1.991,1.991,0,0,1,334.793,171.877Zm0,0" transform="translate(-293.553 -145.615)" fill="#70b568"/>
      <path id="Path_3455" data-name="Path 3455" d="M236.059,165.39a1.873,1.873,0,0,1-.113.636l-3.886,10.8a1.871,1.871,0,0,1-2.788.929,1.865,1.865,0,0,0,.734-.929l3.886-10.8a1.862,1.862,0,0,0-.732-2.2,1.872,1.872,0,0,1,2.9,1.56Zm0,0" transform="translate(-204.795 -145.618)" fill="#70b568"/>
      <path id="Path_3456" data-name="Path 3456" d="M101.577,78.724a.892.892,0,1,1-.892-.892A.892.892,0,0,1,101.577,78.724Zm0,0" transform="translate(-89.138 -69.076)"/>
      <path id="Path_3457" data-name="Path 3457" d="M131.332,78.724a.892.892,0,1,1-.892-.892A.892.892,0,0,1,131.332,78.724Zm0,0" transform="translate(-115.716 -69.076)"/>
      <path id="Path_3458" data-name="Path 3458" d="M161.089,78.724a.892.892,0,1,1-.892-.892A.892.892,0,0,1,161.089,78.724Zm0,0" transform="translate(-142.296 -69.076)"/>
      <path id="Path_3459" data-name="Path 3459" d="M122.557,160.34a2.791,2.791,0,0,0-2.335-4.321,2.783,2.783,0,0,0-2.335,1.262l-3.456,5.277a2.791,2.791,0,0,0,0,3.059l3.456,5.276a2.783,2.783,0,0,0,2.335,1.262,2.791,2.791,0,0,0,2.335-4.32l-2.027-3.095a1.191,1.191,0,0,1,0-1.3Zm-3.366,5.277,2.027,3.095a1.191,1.191,0,0,1-1,1.843,1.187,1.187,0,0,1-1-.538l-3.456-5.277a1.189,1.189,0,0,1,0-1.3l3.456-5.277a1.187,1.187,0,0,1,1-.538,1.191,1.191,0,0,1,1,1.843l-2.027,3.1A2.792,2.792,0,0,0,119.191,165.616Zm0,0" transform="translate(-101.806 -138.915)"/>
      <path id="Path_3460" data-name="Path 3460" d="M317.229,157.282a2.782,2.782,0,0,0-2.335-1.262,2.791,2.791,0,0,0-2.335,4.321l2.027,3.095a1.189,1.189,0,0,1,0,1.3l-2.027,3.095a2.791,2.791,0,0,0,2.335,4.321,2.784,2.784,0,0,0,2.335-1.262l3.456-5.277a2.791,2.791,0,0,0,0-3.059Zm2.117,7.458-3.456,5.277a1.191,1.191,0,0,1-1.992-1.3l2.027-3.095a2.792,2.792,0,0,0,0-3.058l-2.027-3.1a1.19,1.19,0,1,1,1.992-1.3l3.456,5.276A1.191,1.191,0,0,1,319.346,164.74Zm0,0" transform="translate(-278.776 -138.916)"/>
      <path id="Path_3461" data-name="Path 3461" d="M220.456,156.02a2.678,2.678,0,0,0-2.512,1.766l-3.885,10.8a2.67,2.67,0,0,0,5.025,1.808l3.885-10.795a2.67,2.67,0,0,0-2.512-3.575Zm1.006,3.032-3.885,10.795a1.072,1.072,0,0,1-1.006.707,1.069,1.069,0,0,1-1.006-1.432l3.885-10.795a1.072,1.072,0,0,1,1.006-.707,1.07,1.07,0,0,1,1.006,1.432Zm0,0" transform="translate(-191.063 -138.916)"/>
      <path id="Path_3462" data-name="Path 3462" d="M49.092.5H5.572A5.578,5.578,0,0,0,0,6.072v32.24a5.578,5.578,0,0,0,5.572,5.572H19.664v3.552h-1.4a.8.8,0,1,0,0,1.6H40.5a1.117,1.117,0,0,1,1.116,1.116V53.4H12.7V50.152a1.117,1.117,0,0,1,1.116-1.116h.7a.8.8,0,0,0,0-1.6h-.7A2.72,2.72,0,0,0,11.1,50.152v3.294A1.555,1.555,0,0,0,12.655,55H41.667a1.555,1.555,0,0,0,1.553-1.554V50.152A2.72,2.72,0,0,0,40.5,47.435H34.658V43.884H49.092a5.578,5.578,0,0,0,5.572-5.572V6.072A5.578,5.578,0,0,0,49.092.5ZM33.057,47.435H21.264V43.884H33.057Zm20.006-9.123a3.967,3.967,0,0,1-3.971,3.971H5.572A3.967,3.967,0,0,1,1.6,38.312v-.757H53.064ZM6.733,35.954V13.888H47.8V35.954Zm46.331,0H49.4V9.334a3.929,3.929,0,0,0-3.924-3.925H25.7a.8.8,0,1,0,0,1.6H45.479A2.327,2.327,0,0,1,47.8,9.334v2.954H6.733V9.334A2.327,2.327,0,0,1,9.057,7.009H21.944a.8.8,0,0,0,0-1.6H9.057A3.929,3.929,0,0,0,5.132,9.334V35.954H1.6V6.072A3.976,3.976,0,0,1,5.572,2.1h43.52a3.976,3.976,0,0,1,3.971,3.971Zm0,0"/>
    </g>
  </g>
</svg>
